<svg id="ART" xmlns="http://www.w3.org/2000/svg" xmlns:xlink="http://www.w3.org/1999/xlink" viewBox="0 0 48 48"><defs><style>.cls-1{fill:url(#linear-gradient);}.cls-2{fill:url(#linear-gradient-2);}.cls-3{fill:url(#linear-gradient-3);}.cls-4{fill:url(#linear-gradient-4);}.cls-5{fill:url(#linear-gradient-5);}.cls-6{fill:url(#linear-gradient-6);}</style><linearGradient id="linear-gradient" x1="24" y1="51.75" x2="24" y2="-62.67" gradientUnits="userSpaceOnUse"><stop offset="0" stop-color="#273a9b"/><stop offset="0.56" stop-color="#202f65"/><stop offset="1" stop-color="#021e2f"/></linearGradient><linearGradient id="linear-gradient-2" y1="44.37" x2="24" y2="33.12" xlink:href="#linear-gradient"/><linearGradient id="linear-gradient-3" y1="52.25" x2="24" y2="29.32" xlink:href="#linear-gradient"/><linearGradient id="linear-gradient-4" x1="16" y1="41.88" x2="16" y2="17.28" gradientUnits="userSpaceOnUse"><stop offset="0" stop-color="#f3c57a"/><stop offset="0.49" stop-color="#f39369"/><stop offset="1" stop-color="#e94867"/></linearGradient><linearGradient id="linear-gradient-5" x1="24" y1="30.38" x2="24" y2="-10.01" gradientUnits="userSpaceOnUse"><stop offset="0" stop-color="#fff"/><stop offset="0.52" stop-color="#cce2e6"/><stop offset="1" stop-color="#8fa1bb"/></linearGradient><linearGradient id="linear-gradient-6" x1="32" y1="47.87" x2="32" y2="16.24" gradientUnits="userSpaceOnUse"><stop offset="0" stop-color="#27e9de"/><stop offset="0.52" stop-color="#03a4ec"/><stop offset="1" stop-color="#2547a8"/></linearGradient></defs><title>graph, analytics, chart, bar, statistics</title><rect class="cls-1" x="3" y="3" width="42" height="42" rx="6.27" ry="6.27"/><rect class="cls-2" x="10.5" y="36.75" width="27" height="8.25"/><path class="cls-3" d="M36.75,37.5H11.25a.75.75,0,0,1-.75-.75h0a.75.75,0,0,1,.75-.75h25.5a.75.75,0,0,1,.75.75h0A.75.75,0,0,1,36.75,37.5Z"/><path class="cls-4" d="M13.41,25.5H20a0,0,0,0,1,0,0V36a0,0,0,0,1,0,0H12a0,0,0,0,1,0,0V26.91A1.41,1.41,0,0,1,13.41,25.5Z"/><path class="cls-5" d="M21.41,10.5h5.17A1.41,1.41,0,0,1,28,11.91V36a0,0,0,0,1,0,0H20a0,0,0,0,1,0,0V11.91A1.41,1.41,0,0,1,21.41,10.5Z"/><path class="cls-6" d="M28,18h6.59A1.41,1.41,0,0,1,36,19.41V36a0,0,0,0,1,0,0H28a0,0,0,0,1,0,0V18A0,0,0,0,1,28,18Z"/></svg>